<svg version="1.2" xmlns="http://www.w3.org/2000/svg" viewBox="0 0 107 87" width="25" height="20">
	<title>logo-svg</title>
	<style>
		.s0 { fill: #ffffff } 
		.s1 { fill: #ff3811 } 
		.s2 { fill: #444444 } 
	</style>
	<path id="Layer" class="s0" d="m104 36.7c-0.5-1.6-1-3-1.4-4.4-0.3-0.9-0.8-1.2-1.7-1.1-2.7 0.1-5.5-0.1-8.3 0.3-2.7 0.3-4.6-0.5-5.8-2.9-0.4-0.8-1-1.4-1.5-2.1-0.8-0.8-0.9-1.7-0.5-2.8 1.2-3.1 2.3-6.2 3.5-9.3 0.4-1 0.2-1.6-0.7-2.2-1.7-1.2-3.2-2.4-4.8-3.5-2.3-1.5-1.7-1.6-3.9 0.1-2.5 1.8-5 3.6-7.4 5.5-0.8 0.6-1.6 0.7-2.5 0.4-1.5-0.6-3-1.1-4.6-1.5-1.3-0.3-1.9-1-2.3-2.3-0.9-3.1-1.9-6.2-2.8-9.4-0.2-0.9-0.7-1.3-1.6-1.3-2.3-0.1-4.6-0.1-6.9-0.2-1.3 0-2 0.4-2.3 1.7-0.9 3-1.9 6-2.8 9.1-0.3 1.2-0.9 1.9-2.2 2.2-1.6 0.3-3.2 0.9-4.8 1.5-1.1 0.4-1.9 0.2-2.7-0.5-2.8-2.1-5.6-4.1-8.3-6.2-0.7-0.6-1.3-0.6-2-0.1q-3 2.2-6 4.2c-0.8 0.6-0.8 1.2-0.5 2q1.9 4.9 3.5 9.8c0.2 0.6 0 1.4-0.3 2-1 1.5-2.3 3-3.3 4.5-0.6 0.9-1.4 1.3-2.5 1.2q-5.2-0.2-10.4-0.2c-0.5 0-1.3 0.2-1.4 0.5-0.6 1.6-1.1 3.2-1.7 5 0.7 0 1.2 0 1.8 0 5.1 0 10.3-0.1 15.5 0.1 2 0 3.4-0.4 4-2.4 0.3-0.6 0.8-1.2 1.1-1.7 8.6-13.1 26-18.4 40.4-12.3 7.5 3.1 13.1 8.2 17 15.3 0.2 0.5 0.8 1 1.2 1 6.6 0.1 13.1 0 19.9 0z"/>
	<path id="Layer" class="s1" d="m104 36.7c-6.8 0-13.3 0.1-19.9 0-0.4 0-1-0.6-1.3-1-3.8-7.1-9.4-12.2-16.9-15.3-14.4-6.1-31.8-0.8-40.4 12.2-0.4 0.6-0.9 1.2-1.1 1.8-0.7 2-2.1 2.4-4.1 2.4-5.1-0.2-10.3-0.1-15.5-0.1-0.5 0-1 0-1.8 0 0.6-1.8 1.1-3.4 1.7-5 0.2-0.3 1-0.6 1.4-0.6q5.2 0.1 10.5 0.3c1.1 0.1 1.8-0.3 2.4-1.2 1.1-1.5 2.3-3 3.3-4.5 0.4-0.6 0.6-1.5 0.4-2.1-1.1-3.2-2.4-6.5-3.6-9.7-0.3-0.9-0.2-1.5 0.6-2 2-1.4 4-2.8 5.9-4.2 0.8-0.5 1.3-0.5 2.1 0 2.7 2.2 5.5 4.2 8.2 6.3 0.9 0.7 1.7 0.9 2.8 0.4 1.5-0.6 3.1-1.1 4.8-1.4 1.3-0.3 1.8-1 2.2-2.2 0.8-3.1 1.8-6.1 2.7-9.1 0.4-1.3 1.1-1.8 2.4-1.7 2.2 0.1 4.5 0.1 6.8 0.1 1 0 1.4 0.5 1.7 1.4 0.9 3.2 1.9 6.3 2.8 9.4 0.3 1.2 0.9 2 2.3 2.3 1.5 0.4 3 0.9 4.5 1.5 0.9 0.3 1.7 0.2 2.5-0.4q3.7-2.8 7.4-5.6c2.3-1.7 1.7-1.5 3.9 0 1.6 1.1 3.2 2.3 4.8 3.4 0.9 0.6 1.1 1.2 0.7 2.2-1.2 3.1-2.2 6.2-3.4 9.3-0.5 1.1-0.3 2 0.4 2.9 0.6 0.6 1.1 1.3 1.5 2 1.3 2.4 3.1 3.2 5.9 2.9 2.7-0.3 5.5-0.2 8.3-0.3 0.8 0 1.4 0.2 1.6 1.1 0.5 1.5 1 2.9 1.5 4.5z"/>
	<path id="Layer" class="s0" d="m75.3 46.2q-5-4.9-10-9.9c-0.6-0.6-1-0.2-1.4 0.2q-2.3 2.4-4.7 4.7c-1.1 1-2.2 2-3.2 2.9q0.1 0.2 0.2 0.4c3.2-0.6 5.9 0 8.1 2.3 2.3 2.2 2.9 4.9 2.3 7.9 2.9-2.8 5.8-5.6 8.7-8.5z"/>
	<path id="Layer" class="s0" d="m51 44.3c-0.4-0.4-0.6-0.7-0.8-1-2.3-2.2-4.6-4.4-6.8-6.7-0.8-0.8-1.3-0.8-2 0-3 3-5.9 5.9-8.9 8.8-0.8 0.7-0.6 1.1 0 1.8 2.4 2.3 4.7 4.7 7.1 7 0.2 0.2 0.5 0.3 0.8 0.5-1-6.7 3.8-11.3 10.6-10.4z"/>
	<path id="Layer" class="s0" d="m40.1 33.4c-3.6 3.6-7.1 7.1-10.5 10.6 0.2 0.3 0.6 0.8 0.9 1.2 3.6-3.6 7.1-7.1 10.8-10.7-0.4-0.4-0.8-0.8-1.2-1.1z"/>
	<path id="Layer" class="s0" d="m80.1 41.6c-0.1-0.2-0.2-0.3-0.3-0.5-3.2-3.1-6.3-6.3-9.5-9.4-0.5-0.6-0.9-0.6-1.5 0-0.6 0.6-0.5 1 0 1.5 2.9 2.8 5.7 5.6 8.5 8.4 0.4 0.5 0.9 0.9 1.6 1.5 0.4-0.5 0.7-0.9 1.2-1.5z"/>
	<path id="Layer" class="s0" d="m77.8 43.8c-3.2-3.2-6.5-6.4-9.7-9.6-0.5-0.6-1-1-1.7-0.2-0.7 0.8-0.3 1.2 0.3 1.7q4.3 4.3 8.5 8.5c1.3 1.3 1.3 1.3 2.6-0.4z"/>
	<path id="Layer" class="s0" d="m38.9 32.3c-1.3-1.5-1.3-1.5-2.6-0.2q-4.2 4.1-8.3 8.2c-1.3 1.3-1.3 1.5 0.3 2.4 3.5-3.5 7-6.9 10.6-10.4z"/>
	<path id="Layer" fill-rule="evenodd" class="s2" d="m75.3 46.2c-2.9 2.9-5.8 5.7-8.7 8.6 0.6-3 0-5.8-2.3-8-2.2-2.3-5-2.9-8.1-2.3q-0.1-0.2-0.2-0.3c1-1 2.1-1.9 3.2-2.9q2.4-2.4 4.7-4.8c0.4-0.4 0.8-0.8 1.4-0.2q5 4.9 10 9.9zm-7.7-4.5c-0.5 0.7-1.3 1.3-1.2 1.7 0.1 0.4 0.8 0.8 1.3 1.3 0.4-0.5 1-0.9 1.1-1.3 0-0.5-0.6-1-1.2-1.7z"/>
	<path id="Layer" fill-rule="evenodd" class="s2" d="m51 44.3c-6.8-0.9-11.6 3.7-10.6 10.4-0.3-0.2-0.6-0.3-0.8-0.5-2.4-2.3-4.7-4.7-7.1-7-0.6-0.6-0.8-1.1 0-1.8q4.5-4.4 8.9-8.8c0.7-0.8 1.2-0.8 2 0 2.2 2.3 4.5 4.5 6.8 6.7 0.2 0.3 0.4 0.6 0.8 1zm-9.8-0.8c-0.8-0.7-1.3-1.4-1.7-1.3-0.5 0-0.9 0.7-1.4 1.2 0.5 0.4 0.8 1.1 1.3 1.1 0.4 0.1 0.9-0.5 1.8-1z"/>
	<path id="Layer" class="s2" d="m40.1 33.4c0.4 0.3 0.8 0.7 1.2 1.1-3.7 3.6-7.2 7.1-10.8 10.7-0.3-0.4-0.7-0.9-0.9-1.2q5.1-5.2 10.5-10.6z"/>
	<path id="Layer" class="s2" d="m80.1 41.6c-0.5 0.6-0.8 1-1.2 1.5-0.7-0.6-1.2-1-1.6-1.4-2.8-2.8-5.6-5.6-8.5-8.4-0.6-0.6-0.7-1 0-1.6 0.5-0.6 1-0.6 1.5 0q4.7 4.7 9.5 9.5c0.1 0 0.2 0.2 0.3 0.4z"/>
	<path id="Layer" class="s2" d="m77.8 43.8c-1.2 1.7-1.3 1.7-2.6 0.4-2.8-2.8-5.7-5.7-8.5-8.5-0.6-0.5-1-0.9-0.3-1.7 0.7-0.8 1.2-0.4 1.7 0.2 3.2 3.2 6.5 6.4 9.7 9.6z"/>
	<path id="Layer" class="s2" d="m38.9 32.3c-3.6 3.5-7.1 6.9-10.6 10.4-1.6-0.9-1.6-1-0.3-2.4q4.2-4.1 8.3-8.2c1.3-1.3 1.3-1.3 2.6 0.2z"/>
	<path id="Layer" class="s0" d="m67.6 41.7c0.6 0.7 1.2 1.2 1.2 1.7-0.1 0.4-0.7 0.8-1.1 1.3-0.5-0.5-1.2-0.8-1.3-1.3-0.1-0.4 0.7-1 1.2-1.7z"/>
	<path id="Layer" class="s0" d="m41.2 43.5c-0.9 0.5-1.4 1.1-1.8 1-0.5 0-0.9-0.7-1.3-1.2 0.5-0.4 0.9-1.1 1.4-1.2 0.4 0 0.9 0.7 1.7 1.4z"/>
	<path id="Layer" fill-rule="evenodd" class="s2" d="m8 68.8q-1.7 0-2.7 1.3-0.9 1.3-0.9 3.6 0 4.8 3.6 4.8 1.5 0 3.6-0.8v2.5q-1.7 0.8-3.9 0.8-3.1 0-4.8-1.9-1.6-1.9-1.6-5.4 0-2.3 0.8-3.9 0.8-1.7 2.3-2.6 1.5-0.9 3.6-0.9 2.1 0 4.2 1l-1 2.5q-0.8-0.4-1.6-0.7-0.8-0.3-1.6-0.3zm13.4 12l-0.6-1.5h-0.1q-0.7 0.9-1.5 1.3-0.8 0.4-2.1 0.4-1.6 0-2.5-0.9-0.9-0.9-0.9-2.6 0-1.7 1.2-2.5 1.2-0.9 3.7-1h1.9v-0.5q0-1.7-1.7-1.7-1.3 0-3.1 0.8l-1-2q1.9-1 4.2-1 2.2 0 3.4 1 1.2 0.9 1.2 2.9v7.3zm-0.9-5.1l-1.2 0.1q-1.3 0-1.9 0.4-0.6 0.5-0.6 1.3 0 1.3 1.4 1.3 1 0 1.6-0.6 0.7-0.6 0.7-1.6zm12.1-6q0.6 0 1 0l-0.2 2.8q-0.4-0.1-0.9-0.1-1.4 0-2.2 0.8-0.8 0.7-0.8 2v5.6h-3v-10.9h2.3l0.4 1.8h0.1q0.6-0.9 1.4-1.5 0.9-0.5 1.9-0.5zm20.3 3.8q0 3.5-2 5.4-2 1.9-5.8 1.9h-4.1v-14.3h4.5q3.5 0 5.4 1.8 2 1.9 2 5.2zm-3.2 0.1q0-4.6-4-4.6h-1.7v9.3h1.3q4.4 0 4.4-4.7zm15.8 1.7q0 2.7-1.4 4.2-1.4 1.5-3.9 1.5-1.6 0-2.8-0.7-1.2-0.7-1.8-2-0.7-1.3-0.7-3 0-2.7 1.4-4.2 1.4-1.4 3.9-1.4 1.6 0 2.8 0.6 1.2 0.7 1.9 2 0.6 1.3 0.6 3zm-7.5 0q0 1.6 0.5 2.4 0.5 0.9 1.7 0.9 1.2 0 1.7-0.8 0.6-0.9 0.6-2.5 0-1.6-0.6-2.4-0.5-0.8-1.7-0.8-1.2 0-1.7 0.8-0.5 0.8-0.5 2.4zm14.4 5.7q-5.1 0-5.1-5.6 0-2.8 1.4-4.3 1.4-1.4 4-1.4 1.9 0 3.4 0.7l-0.9 2.3q-0.7-0.3-1.3-0.5-0.6-0.1-1.2-0.1-2.4 0-2.4 3.3 0 3.2 2.4 3.2 0.8 0 1.6-0.3 0.7-0.2 1.4-0.7v2.6q-0.7 0.4-1.4 0.6-0.8 0.2-1.9 0.2zm10.5-2.4q0.7 0 1.8-0.3v2.2q-1.1 0.5-2.7 0.5-1.8 0-2.6-0.9-0.8-0.9-0.8-2.7v-5.3h-1.4v-1.3l1.6-1 0.9-2.3h1.9v2.4h3v2.2h-3v5.3q0 0.6 0.3 0.9 0.4 0.3 1 0.3zm14-3.3q0 2.7-1.4 4.2-1.4 1.5-3.9 1.5-1.6 0-2.8-0.7-1.2-0.7-1.9-2-0.6-1.3-0.6-3 0-2.7 1.4-4.2 1.4-1.4 3.9-1.4 1.6 0 2.8 0.6 1.2 0.7 1.8 2 0.7 1.3 0.7 3zm-7.6 0q0 1.6 0.6 2.4 0.5 0.9 1.7 0.9 1.2 0 1.7-0.8 0.5-0.9 0.5-2.5 0-1.6-0.5-2.4-0.5-0.8-1.7-0.8-1.2 0-1.7 0.8-0.6 0.8-0.6 2.4zm16.1-5.6q0.6 0 1 0l-0.2 2.8q-0.3-0.1-0.9-0.1-1.4 0-2.2 0.8-0.8 0.7-0.8 2v5.6h-3v-10.9h2.3l0.4 1.8h0.2q0.5-0.9 1.3-1.5 0.9-0.5 1.9-0.5z"/>
</svg>